<mxfile host="app.diagrams.net" agent="Mozilla/5.0 (Windows NT 10.0; Win64; x64) AppleWebKit/537.36 (KHTML, like Gecko) Chrome/135.0.0.0 Safari/537.36" version="26.2.14">
  <diagram name="Page-1" id="6csNrVKLw4c2Pl__SBZH">
    <mxGraphModel dx="2500" dy="948" grid="1" gridSize="10" guides="1" tooltips="1" connect="1" arrows="1" fold="1" page="1" pageScale="1" pageWidth="850" pageHeight="1100" math="0" shadow="0">
      <root>
        <mxCell id="0" />
        <mxCell id="1" parent="0" />
        <mxCell id="Bu-GhgE_XSow3w0XUoch-33" value="" style="whiteSpace=wrap;html=1;aspect=fixed;fillColor=#f5f5f5;fontColor=#333333;strokeColor=#666666;" vertex="1" parent="1">
          <mxGeometry x="220" y="100" width="850" height="850" as="geometry" />
        </mxCell>
        <mxCell id="Bu-GhgE_XSow3w0XUoch-52" style="edgeStyle=orthogonalEdgeStyle;rounded=0;orthogonalLoop=1;jettySize=auto;html=1;entryX=0;entryY=0.5;entryDx=0;entryDy=0;" edge="1" parent="1" target="Bu-GhgE_XSow3w0XUoch-39">
          <mxGeometry relative="1" as="geometry">
            <mxPoint x="80.00000000000023" y="370.61" as="sourcePoint" />
            <mxPoint x="260" y="189" as="targetPoint" />
            <Array as="points">
              <mxPoint x="80" y="190" />
            </Array>
          </mxGeometry>
        </mxCell>
        <mxCell id="Bu-GhgE_XSow3w0XUoch-53" style="edgeStyle=orthogonalEdgeStyle;rounded=0;orthogonalLoop=1;jettySize=auto;html=1;" edge="1" parent="1" source="Bu-GhgE_XSow3w0XUoch-34" target="Bu-GhgE_XSow3w0XUoch-44">
          <mxGeometry relative="1" as="geometry">
            <Array as="points">
              <mxPoint x="120" y="400" />
              <mxPoint x="120" y="280" />
            </Array>
          </mxGeometry>
        </mxCell>
        <mxCell id="Bu-GhgE_XSow3w0XUoch-56" style="edgeStyle=orthogonalEdgeStyle;rounded=0;orthogonalLoop=1;jettySize=auto;html=1;" edge="1" parent="1" source="Bu-GhgE_XSow3w0XUoch-34" target="Bu-GhgE_XSow3w0XUoch-46">
          <mxGeometry relative="1" as="geometry" />
        </mxCell>
        <mxCell id="Bu-GhgE_XSow3w0XUoch-57" style="edgeStyle=orthogonalEdgeStyle;rounded=0;orthogonalLoop=1;jettySize=auto;html=1;" edge="1" parent="1">
          <mxGeometry relative="1" as="geometry">
            <mxPoint x="100" y="460" as="sourcePoint" />
            <mxPoint x="270" y="556" as="targetPoint" />
            <Array as="points">
              <mxPoint x="90" y="556" />
            </Array>
          </mxGeometry>
        </mxCell>
        <mxCell id="Bu-GhgE_XSow3w0XUoch-58" style="edgeStyle=orthogonalEdgeStyle;rounded=0;orthogonalLoop=1;jettySize=auto;html=1;entryX=0;entryY=0.5;entryDx=0;entryDy=0;" edge="1" parent="1" target="Bu-GhgE_XSow3w0XUoch-50">
          <mxGeometry relative="1" as="geometry">
            <mxPoint x="60" y="480" as="sourcePoint" />
            <Array as="points">
              <mxPoint x="50" y="690" />
            </Array>
          </mxGeometry>
        </mxCell>
        <mxCell id="Bu-GhgE_XSow3w0XUoch-34" value="User" style="shape=umlActor;verticalLabelPosition=bottom;verticalAlign=top;html=1;" vertex="1" parent="1">
          <mxGeometry x="30" y="350" width="70" height="100" as="geometry" />
        </mxCell>
        <mxCell id="Bu-GhgE_XSow3w0XUoch-89" style="edgeStyle=orthogonalEdgeStyle;rounded=0;orthogonalLoop=1;jettySize=auto;html=1;entryX=1;entryY=0.5;entryDx=0;entryDy=0;" edge="1" parent="1" source="Bu-GhgE_XSow3w0XUoch-35" target="Bu-GhgE_XSow3w0XUoch-82">
          <mxGeometry relative="1" as="geometry">
            <Array as="points">
              <mxPoint x="1205" y="570" />
            </Array>
          </mxGeometry>
        </mxCell>
        <mxCell id="Bu-GhgE_XSow3w0XUoch-91" style="edgeStyle=orthogonalEdgeStyle;rounded=0;orthogonalLoop=1;jettySize=auto;html=1;entryX=1;entryY=0.5;entryDx=0;entryDy=0;" edge="1" parent="1" source="Bu-GhgE_XSow3w0XUoch-35" target="Bu-GhgE_XSow3w0XUoch-80">
          <mxGeometry relative="1" as="geometry">
            <Array as="points">
              <mxPoint x="1205" y="650" />
            </Array>
          </mxGeometry>
        </mxCell>
        <mxCell id="Bu-GhgE_XSow3w0XUoch-93" style="edgeStyle=orthogonalEdgeStyle;rounded=0;orthogonalLoop=1;jettySize=auto;html=1;" edge="1" parent="1" source="Bu-GhgE_XSow3w0XUoch-35" target="Bu-GhgE_XSow3w0XUoch-86">
          <mxGeometry relative="1" as="geometry">
            <Array as="points">
              <mxPoint x="1140" y="740" />
              <mxPoint x="1140" y="740" />
            </Array>
          </mxGeometry>
        </mxCell>
        <mxCell id="Bu-GhgE_XSow3w0XUoch-94" style="edgeStyle=orthogonalEdgeStyle;rounded=0;orthogonalLoop=1;jettySize=auto;html=1;entryX=1;entryY=0.5;entryDx=0;entryDy=0;" edge="1" parent="1" source="Bu-GhgE_XSow3w0XUoch-35" target="Bu-GhgE_XSow3w0XUoch-84">
          <mxGeometry relative="1" as="geometry">
            <Array as="points">
              <mxPoint x="1205" y="840" />
            </Array>
          </mxGeometry>
        </mxCell>
        <mxCell id="Bu-GhgE_XSow3w0XUoch-35" value="Movie Manager" style="shape=umlActor;verticalLabelPosition=bottom;verticalAlign=top;html=1;" vertex="1" parent="1">
          <mxGeometry x="1210" y="640" width="70" height="100" as="geometry" />
        </mxCell>
        <mxCell id="Bu-GhgE_XSow3w0XUoch-39" value="Register / Login" style="ellipse;whiteSpace=wrap;html=1;" vertex="1" parent="1">
          <mxGeometry x="270" y="160" width="140" height="60" as="geometry" />
        </mxCell>
        <mxCell id="Bu-GhgE_XSow3w0XUoch-44" value="Search Movies" style="ellipse;whiteSpace=wrap;html=1;" vertex="1" parent="1">
          <mxGeometry x="270" y="250" width="140" height="60" as="geometry" />
        </mxCell>
        <mxCell id="Bu-GhgE_XSow3w0XUoch-46" value="Get Ticket" style="ellipse;whiteSpace=wrap;html=1;" vertex="1" parent="1">
          <mxGeometry x="270" y="370" width="140" height="60" as="geometry" />
        </mxCell>
        <mxCell id="Bu-GhgE_XSow3w0XUoch-48" value="Pay Online" style="ellipse;whiteSpace=wrap;html=1;" vertex="1" parent="1">
          <mxGeometry x="270" y="520" width="140" height="60" as="geometry" />
        </mxCell>
        <mxCell id="Bu-GhgE_XSow3w0XUoch-50" value="Choose Seat" style="ellipse;whiteSpace=wrap;html=1;" vertex="1" parent="1">
          <mxGeometry x="270" y="660" width="140" height="60" as="geometry" />
        </mxCell>
        <mxCell id="Bu-GhgE_XSow3w0XUoch-73" style="edgeStyle=orthogonalEdgeStyle;rounded=0;orthogonalLoop=1;jettySize=auto;html=1;entryX=1;entryY=0.5;entryDx=0;entryDy=0;" edge="1" parent="1" source="Bu-GhgE_XSow3w0XUoch-60" target="Bu-GhgE_XSow3w0XUoch-69">
          <mxGeometry relative="1" as="geometry">
            <Array as="points">
              <mxPoint x="1205" y="150" />
            </Array>
          </mxGeometry>
        </mxCell>
        <mxCell id="Bu-GhgE_XSow3w0XUoch-76" style="edgeStyle=orthogonalEdgeStyle;rounded=0;orthogonalLoop=1;jettySize=auto;html=1;" edge="1" parent="1" source="Bu-GhgE_XSow3w0XUoch-60" target="Bu-GhgE_XSow3w0XUoch-67">
          <mxGeometry relative="1" as="geometry">
            <Array as="points">
              <mxPoint x="1140" y="240" />
              <mxPoint x="1140" y="240" />
            </Array>
          </mxGeometry>
        </mxCell>
        <mxCell id="Bu-GhgE_XSow3w0XUoch-78" style="edgeStyle=orthogonalEdgeStyle;rounded=0;orthogonalLoop=1;jettySize=auto;html=1;entryX=1;entryY=0.5;entryDx=0;entryDy=0;" edge="1" parent="1" source="Bu-GhgE_XSow3w0XUoch-60" target="Bu-GhgE_XSow3w0XUoch-65">
          <mxGeometry relative="1" as="geometry">
            <Array as="points">
              <mxPoint x="1160" y="260" />
              <mxPoint x="1160" y="320" />
            </Array>
          </mxGeometry>
        </mxCell>
        <mxCell id="Bu-GhgE_XSow3w0XUoch-79" style="edgeStyle=orthogonalEdgeStyle;rounded=0;orthogonalLoop=1;jettySize=auto;html=1;entryX=1;entryY=0.5;entryDx=0;entryDy=0;" edge="1" parent="1" source="Bu-GhgE_XSow3w0XUoch-60" target="Bu-GhgE_XSow3w0XUoch-63">
          <mxGeometry relative="1" as="geometry">
            <Array as="points">
              <mxPoint x="1205" y="410" />
            </Array>
          </mxGeometry>
        </mxCell>
        <mxCell id="Bu-GhgE_XSow3w0XUoch-60" value="Admin" style="shape=umlActor;verticalLabelPosition=bottom;verticalAlign=top;html=1;outlineConnect=0;" vertex="1" parent="1">
          <mxGeometry x="1210" y="210" width="70" height="100" as="geometry" />
        </mxCell>
        <mxCell id="Bu-GhgE_XSow3w0XUoch-63" value="Manage Halls" style="ellipse;whiteSpace=wrap;html=1;" vertex="1" parent="1">
          <mxGeometry x="850" y="380" width="140" height="60" as="geometry" />
        </mxCell>
        <mxCell id="Bu-GhgE_XSow3w0XUoch-65" value="View Reports" style="ellipse;whiteSpace=wrap;html=1;" vertex="1" parent="1">
          <mxGeometry x="850" y="290" width="140" height="60" as="geometry" />
        </mxCell>
        <mxCell id="Bu-GhgE_XSow3w0XUoch-67" value="Manage Users" style="ellipse;whiteSpace=wrap;html=1;" vertex="1" parent="1">
          <mxGeometry x="850" y="210" width="140" height="60" as="geometry" />
        </mxCell>
        <mxCell id="Bu-GhgE_XSow3w0XUoch-69" value="Manage Movies" style="ellipse;whiteSpace=wrap;html=1;" vertex="1" parent="1">
          <mxGeometry x="850" y="120" width="140" height="60" as="geometry" />
        </mxCell>
        <mxCell id="Bu-GhgE_XSow3w0XUoch-71" style="edgeStyle=orthogonalEdgeStyle;rounded=0;orthogonalLoop=1;jettySize=auto;html=1;exitX=0.5;exitY=1;exitDx=0;exitDy=0;" edge="1" parent="1" source="Bu-GhgE_XSow3w0XUoch-63" target="Bu-GhgE_XSow3w0XUoch-63">
          <mxGeometry relative="1" as="geometry" />
        </mxCell>
        <mxCell id="Bu-GhgE_XSow3w0XUoch-80" value="Update Movies" style="ellipse;whiteSpace=wrap;html=1;" vertex="1" parent="1">
          <mxGeometry x="880" y="620" width="140" height="60" as="geometry" />
        </mxCell>
        <mxCell id="Bu-GhgE_XSow3w0XUoch-82" value="Add Movies" style="ellipse;whiteSpace=wrap;html=1;" vertex="1" parent="1">
          <mxGeometry x="880" y="540" width="140" height="60" as="geometry" />
        </mxCell>
        <mxCell id="Bu-GhgE_XSow3w0XUoch-84" value="View Movie Details" style="ellipse;whiteSpace=wrap;html=1;" vertex="1" parent="1">
          <mxGeometry x="880" y="810" width="140" height="60" as="geometry" />
        </mxCell>
        <mxCell id="Bu-GhgE_XSow3w0XUoch-86" value="Delete Movies" style="ellipse;whiteSpace=wrap;html=1;" vertex="1" parent="1">
          <mxGeometry x="880" y="710" width="140" height="60" as="geometry" />
        </mxCell>
        <mxCell id="Bu-GhgE_XSow3w0XUoch-98" value="Calculate Total Price" style="ellipse;whiteSpace=wrap;html=1;" vertex="1" parent="1">
          <mxGeometry x="490" y="520" width="140" height="60" as="geometry" />
        </mxCell>
        <mxCell id="Bu-GhgE_XSow3w0XUoch-100" value="" style="endArrow=none;dashed=1;html=1;rounded=0;exitX=0;exitY=0.5;exitDx=0;exitDy=0;entryX=1;entryY=0.5;entryDx=0;entryDy=0;" edge="1" parent="1" source="Bu-GhgE_XSow3w0XUoch-98" target="Bu-GhgE_XSow3w0XUoch-48">
          <mxGeometry width="50" height="50" relative="1" as="geometry">
            <mxPoint x="400" y="470" as="sourcePoint" />
            <mxPoint x="400" y="460" as="targetPoint" />
          </mxGeometry>
        </mxCell>
        <mxCell id="Bu-GhgE_XSow3w0XUoch-102" value="Confirm Payment" style="ellipse;whiteSpace=wrap;html=1;" vertex="1" parent="1">
          <mxGeometry x="490" y="370" width="140" height="60" as="geometry" />
        </mxCell>
        <mxCell id="Bu-GhgE_XSow3w0XUoch-104" value="" style="endArrow=none;dashed=1;html=1;rounded=0;exitX=0;exitY=0.5;exitDx=0;exitDy=0;entryX=1;entryY=0.5;entryDx=0;entryDy=0;" edge="1" parent="1" source="Bu-GhgE_XSow3w0XUoch-102" target="Bu-GhgE_XSow3w0XUoch-46">
          <mxGeometry width="50" height="50" relative="1" as="geometry">
            <mxPoint x="400" y="470" as="sourcePoint" />
            <mxPoint x="450" y="420" as="targetPoint" />
          </mxGeometry>
        </mxCell>
        <mxCell id="Bu-GhgE_XSow3w0XUoch-105" value="Validate Credentials" style="ellipse;whiteSpace=wrap;html=1;" vertex="1" parent="1">
          <mxGeometry x="490" y="160" width="140" height="60" as="geometry" />
        </mxCell>
        <mxCell id="Bu-GhgE_XSow3w0XUoch-107" value="" style="endArrow=none;dashed=1;html=1;rounded=0;entryX=0;entryY=0.5;entryDx=0;entryDy=0;exitX=1;exitY=0.5;exitDx=0;exitDy=0;" edge="1" parent="1" source="Bu-GhgE_XSow3w0XUoch-39" target="Bu-GhgE_XSow3w0XUoch-105">
          <mxGeometry width="50" height="50" relative="1" as="geometry">
            <mxPoint x="430" y="220" as="sourcePoint" />
            <mxPoint x="480" y="170" as="targetPoint" />
          </mxGeometry>
        </mxCell>
      </root>
    </mxGraphModel>
  </diagram>
</mxfile>
